<svg xmlns="http://www.w3.org/2000/svg" xmlns:xlink="http://www.w3.org/1999/xlink" viewBox="0 0 15.37334 14.64889">
  <defs>
    <style>
      .a {
        fill: none;
      }

      .b {
        fill: #ffe18a;
      }

      .c {
        fill: #fff;
      }

      .d {
        clip-path: url(#a);
      }

      .e {
        fill: #ffd56c;
      }
    </style>
    <clipPath id="a" transform="translate(-0.31333 -0.73738)">
      <path class="a" d="M8.24573.88939c2.11158,4.25885,2.46211,4.53568,7.21135,5.23685a.274.274,0,0,1,.14747.466c-3.39789,3.32429-3.55286,3.74321-2.75211,8.47668a.274.274,0,0,1-.39761.28426c-4.21153-2.2043-4.65788-2.22225-8.91207.00192a.27255.27255,0,0,1-.39408-.28619c.79574-4.69041.67578-5.1197-2.75528-8.47945A.274.274,0,0,1,.548,6.12578c4.70292-.69217,5.07452-.94,7.209-5.24013A.274.274,0,0,1,8.24573.88939Z"/>
    </clipPath>
  </defs>
  <title>icon-mirakurun</title>
  <g>
    <path class="b" d="M8.24573.88939c2.11158,4.25885,2.46211,4.53568,7.21135,5.23685a.274.274,0,0,1,.14747.466c-3.39789,3.32429-3.55286,3.74321-2.75211,8.47668a.274.274,0,0,1-.39761.28426c-4.21153-2.2043-4.65788-2.22225-8.91207.00192a.27255.27255,0,0,1-.39408-.28619c.79574-4.69041.67578-5.1197-2.75528-8.47945A.274.274,0,0,1,.548,6.12578c4.70292-.69217,5.07452-.94,7.209-5.24013A.274.274,0,0,1,8.24573.88939Z" transform="translate(-0.31333 -0.73738)"/>
    <path class="c" d="M7.88012,12.67977C6.85,10.60206,6.679,10.467,4.362,10.12493a.13366.13366,0,0,1-.07195-.22734C5.94775,8.27582,6.02335,8.07144,5.6327,5.76218a.13366.13366,0,0,1,.194-.13868c2.05463,1.07538,2.27238,1.08414,4.34782-.00094a.133.133,0,0,1,.19225.13962c-.38821,2.28825-.32969,2.49768,1.34418,4.13676a.13366.13366,0,0,1-.07542.22621c-2.29435.33768-2.47564.45859-3.517,2.55643A.13366.13366,0,0,1,7.88012,12.67977Z" transform="translate(-0.31333 -0.73738)"/>
    <g class="d">
      <circle class="e" cx="4.82422" cy="4.12603" r="0.79995"/>
      <circle class="e" cx="10.54912" cy="4.12603" r="0.8"/>
      <circle class="e" cx="7.68667" cy="12.95622" r="0.8"/>
      <circle class="e" cx="3.03006" cy="9.57889" r="0.8"/>
      <circle class="e" cx="12.34329" cy="9.57889" r="0.8"/>
    </g>
  </g>
</svg>
